<?xml version="1.0" standalone="no"?><!DOCTYPE svg PUBLIC "-//W3C//DTD SVG 1.1//EN" "http://www.w3.org/Graphics/SVG/1.1/DTD/svg11.dtd"><svg t="1711123027709" class="icon" viewBox="0 0 1024 1024" version="1.1" xmlns="http://www.w3.org/2000/svg" p-id="7862" xmlns:xlink="http://www.w3.org/1999/xlink" width="64" height="64"><path d="M511.872 512l-64 0c0-4.608-0.16-9.184-0.32-13.76l-0.48-4.32 0.288-3.072c10.24-110.4 111.872-201.44 226.56-202.88l0.8 64c-81.92 1.024-154.56 64.448-163.328 141.952 0.32 7.264 0.48 12.672 0.48 18.08z" fill="#000000" p-id="7863"></path><path d="M671.872 864l-415.712 0c-141.184 0-256.032-114.848-256.032-256s114.848-256 256-256l0 64c-105.888 0-192 86.112-192 192s86.144 192 192.032 192l415.712 0c158.784 0 288-129.184 288-288 0-158.016-127.904-286.688-285.6-288-149.664 1.248-277.12 115.424-290.656 260.96-0.448 5.024-0.192 10.144 0 15.328 0.128 3.872 0.256 7.744 0.256 11.68l-64 0c0-3.168-0.128-6.272-0.224-9.408-0.288-7.904-0.48-15.744 0.256-23.52 16.48-177.376 170.624-316.64 352-319.04l0 0 4.8 0.032c191.872 2.592 347.168 159.456 347.168 351.968 0 194.08-157.888 352-352 352z" fill="#000000" p-id="7864"></path></svg>